<svg width="286" height="231" xmlns="http://www.w3.org/2000/svg">

 <g>
  <title>background</title>
  <rect fill="none" id="canvas_background" height="233" width="288" y="-1" x="-1"/>
 </g>
 <g>
  <title>Layer 1</title>
  <g fill="white" id="Layer_2">
   <g id="Layer_1-2">
    <path id="svg_1" d="m343.5,43.7l9.4,0l0,54.8l17.7,0l0,9.5l-27.2,0c0.1,-21.7 0.1,-42.8 0.1,-64.3z"/>
    <path id="svg_2" d="m378.7,43.7l29.1,0l0,9.7l-19.4,0l0,17.4l16.1,0l0,9.6l-16.1,0l0,17.7l19.4,0l0,9.4l-29.1,0l0,-63.8z"/>
    <path id="svg_3" d="m461.8,52.8c3.2,-3.1 6.3,-6 9.4,-9.1l13.8,0c3.2,3.1 6.3,6.3 9.2,9.4l0,11.7l-9.7,0l0,-7.7l-3.6,-3.5c-2.3,0.3 -5.1,-0.9 -6.9,0.9c-0.9,1 -1.8,1.8 -2.8,2.6l0,37.7c1.4,1.2 2.6,2.6 4,3.7l5.7,0c1.1,-1.1 2.3,-2.5 3.4,-3.7l0,-7.7c3.2,0 6.6,0 9.7,0l0,11.4c-2.8,3.2 -6,6.3 -9.2,9.4l-14.1,0c-3.2,-3.1 -6.6,-6 -9.4,-9.4c0.2,-15.4 0.5,-30.6 0.5,-45.7z"/>
    <path id="svg_4" d="m502.4,43.7l9.7,0l0,27.1l12.9,0l0,-27.1l9.7,0l0,64.3l-9.7,0l0,-27.2l-12.9,0l0,27.2l-9.7,0l0,-64.3z"/>
    <path id="svg_5" d="m543.5,43.7l28.8,0l0,9.7l-19.1,0l0,17.7l16,0l0,9.7l-16,0l0,17.7l19.4,0l0,9.5l-29.1,0l0,-64.3z"/>
    <path id="svg_6" d="m443.3,43.7l-17.4,0c-4,21.5 -7.7,42.8 -11.4,64.3l9.7,0c1.2,-6 2,-11.7 3.2,-17.7l14.6,0c1.1,6 2,11.7 3.1,17.7l9.7,0c-4.1,-21.7 -7.8,-43.2 -11.5,-64.3zm-14.6,36.7c1.7,-9.1 3.2,-18.3 5.1,-27.4c0.6,0 0.8,0.3 1.4,0.6c1.7,9.2 3.2,18 5.1,27.2c-3.9,-0.4 -7.9,-0.4 -11.6,-0.4z"/>
    <path id="svg_7" d="m607.9,79.7c0,-0.9 -0.6,-2 -0.3,-3.2c1.4,-1.7 3.2,-3.2 4.6,-4.6c0.9,-0.6 0.6,-1.4 0.6,-2.3l0,-17.1l-9.2,-9.2l-23.1,0l0,64.3l9.7,0l0,-27.3l8,0c1.7,9.2 3.1,18.3 5.1,27.2l9.7,0c-1.5,-9 -3.5,-18.4 -5.1,-27.8zm-5.1,-12.9c-1,1.4 -2.1,2.8 -3.4,4l-9.4,0l0,-17.7l9.5,0c1.1,1.4 2.8,2.3 3.4,4l0,9.7l-0.1,0z"/>
    <path id="svg_8" d="m64.4,106.2l0,-35.6l18.3,0l6.6,6.8c1.4,0.8 0.6,2.8 0.9,4c-0.3,5.7 0.3,11.7 0,17.4c-2.2,2.6 -4.6,5.1 -7.1,7.4l-18.7,0z"/>
    <path id="svg_9" d="m193.3,70.8l18.3,0c2.8,2 5.1,5.1 7.7,7.2l0,20.8c-2.6,2.3 -5.1,5.1 -7.4,7.1l-18.6,0l0,-35.1z"/>
    <path id="svg_10" d="m335,52.8c-3.2,-3.1 -6,-6.3 -9.2,-9.1c-7.7,-0.3 -15.3,0 -23.1,0l0,64.3l23.1,0c2.9,-3.2 6,-6.3 9.2,-9.2l0,-18.4l-4.6,-4.6l4.6,-4.6l0,-18.4zm-13.2,0.3l3.4,3.4l0,10.6c-1.2,1.2 -2.3,2.4 -3.4,3.7l-9.5,0l0,-17.7l9.5,0zm3.2,41.4c-1.2,1.1 -2.3,2.5 -3.5,3.7l-9.4,0l0,-17.8l9.4,0c1.2,1.2 2.4,2.4 3.5,3.7l0,10.4z"/>
    <path id="svg_11" d="m13,19.4l0,193.2l257.4,0l0,-193.2l-257.4,0zm96.6,105.4l0,37l-18.6,18.6l-45.7,0c-0.2,-2.9 -0.2,-5.9 0,-8.8l0,-16.7c0,-5.4 -0.3,-11.1 0,-16.6l0,-16.6c-0.3,-2.5 -0.3,-5 0,-7.4l0,-15.3c-0.3,-4 0,-7.7 0,-11.7l0,-27.2c0,-2.8 -0.3,-5.4 -0.3,-8.3l46,0c6.3,6.2 12.6,12.2 18.6,18.5l0,36.9c-2.8,3.2 -6,6 -8.8,8.8c2.8,2.8 5.9,5.6 8.8,8.8zm16,18.6l0,-22.8c10.6,-10.9 21.4,-21.4 32.3,-32.3l0,22.7c-10.6,10.9 -21.5,21.8 -32.3,32.4l0,0zm95.9,36.8c-5.1,-18.3 -9.7,-36.6 -14.9,-54.8l-13.3,0l0,54.8l-19.1,0l0,-128.8l46,0l18.6,18.6l0,37.2c-4.3,4.6 -8.8,8.8 -13.4,13.4c1.4,6.9 3.7,13.4 5.4,20.3c3.5,13.1 7.2,26.3 10.6,39.4l-19.9,-0.1z"/>
    <path id="svg_12" d="m343.5,123.9l28.8,0l0,9.7l-19.1,0l0,17.9l16,0l0,9.4l-16,0l0,17.5l19.4,0c-0.3,3.1 0,6.6 0,9.7l-28.9,0c-0.2,-21.3 -0.2,-42.7 -0.2,-64.2z"/>
    <path id="svg_13" d="m501.1,133.6l0,-9.7l27.1,0l0,9.7l-9,0l0,54.9l-9.7,0l0,-54.9l-8.4,0z"/>
    <path id="svg_14" d="m64.4,160.8l0,-35.6l18.6,0l6.8,6.8c0.5,0.8 0.7,1.7 0.6,2.6c-0.3,6.3 0,12.6 0,18.6c-2.6,2.3 -4.6,5.1 -7.2,7.2c-6.5,0.7 -12.5,0.4 -18.8,0.4z"/>
    <path id="svg_15" d="m329.5,157.1l5.4,-5.5l0,-18.5c-2.9,-3.3 -6.1,-6.3 -9.4,-9.2l-22.7,0l0,64.6l9.4,0l0,-27.4c2.7,-0.2 5.4,-0.2 8,0c1.7,9.2 3.1,18.3 4.8,27.4l9.7,0c-1.4,-10.6 -3.4,-20.8 -5.2,-31.4zm-8,-5.5l-9.4,0l0,-17.9l9.4,0c1.2,1.2 2.4,2.4 3.5,3.7l0,10.2c-1.1,1.3 -2.2,2.7 -3.5,4z"/>
    <path id="svg_16" d="m413,133.1c-1.4,-1.7 -3.2,-3.2 -4.6,-4.8c-1.4,-1.6 -2.9,-3 -4.6,-4.3l-23.1,0l0,64.6l9.7,0l0,-27.4c4.6,0 9.2,0.3 13.7,0c2.8,-2.8 6,-6 8.8,-9.2l0.1,-18.9zm-9.7,14.6c-1.1,1.3 -2.2,2.5 -3.4,3.7l-9.5,0l0,-17.7l9.5,0c1.2,1.2 2.3,2.4 3.4,3.7l0,10.3z"/>
    <path id="svg_17" d="m445.2,125.1c-0.6,-0.6 -1.4,-1.4 -2.3,-1.4c-4.3,0 -8.3,-0.3 -12.6,0c-3.5,2.8 -6.3,6 -9.5,9.2l0,45.8l9.5,9.5l13.7,0c3.1,-3.2 6,-6.3 9.1,-9.5l0,-45.8c-2.8,-2.4 -5.4,-5 -7.9,-7.8zm-5.4,53.4l-5.4,0c-1.1,-1.5 -3.1,-2.3 -3.7,-4l0,-37.4c1.1,-1.2 2.4,-2.3 3.7,-3.2c1.9,-0.2 3.8,-0.2 5.7,0c1.1,1.2 2.3,2.3 3.2,3.4l0,36.3c0.2,2 -2.1,3.4 -3.5,4.9z"/>
    <path id="svg_18" d="m488.4,157.4c1.6,-1.9 3.3,-3.8 5.1,-5.4l0,-18.6c-2.6,-2.6 -5.1,-5.1 -7.7,-8c-0.6,-0.6 -1.4,-1.5 -2.3,-1.5l-21.9,0l0,64.6l9.7,0l0,-27.4c2.6,0 5.4,0 8,0.3c1.7,9.2 3.1,18.3 5.1,27.2l9.7,0c-2,-10.7 -4.3,-20.9 -5.7,-31.2zm-4.6,-9.7c-1,1.4 -2.2,2.6 -3.5,3.7l-9.2,0l0,-17.7l9.2,0c1.2,1.5 2.8,2.3 3.5,4c0,3.1 0.3,6.5 0,10z"/>
   </g>
  </g>
 </g>
</svg>