<?xml version="1.0" encoding="utf-8"?>
<!-- Generator: Adobe Illustrator 19.2.1, SVG Export Plug-In . SVG Version: 6.00 Build 0)  -->
<svg version="1.1" id="layer" xmlns="http://www.w3.org/2000/svg" xmlns:xlink="http://www.w3.org/1999/xlink" x="0px" y="0px"
	 viewBox="0 0 652 652" style="enable-background:new 0 0 652 652;" xml:space="preserve">
<g id="Layer_2">
	<g id="Layer_1-2">
		<path d="M350.5,249.7h9.4v54.8h17.7v9.5h-27.2C350.5,292.3,350.5,271.2,350.5,249.7z"/>
		<path d="M385.7,249.7h29.1v9.7h-19.4v17.4h16.1v9.6h-16.1v17.7h19.4v9.4h-29.1V249.7z"/>
		<path d="M468.8,258.8c3.2-3.1,6.3-6,9.4-9.1H492c3.2,3.1,6.3,6.3,9.2,9.4v11.7h-9.7v-7.7l-3.6-3.5c-2.3,0.3-5.1-0.9-6.9,0.9
			c-0.9,1-1.8,1.8-2.8,2.6v37.7c1.4,1.2,2.6,2.6,4,3.7h5.7c1.1-1.1,2.3-2.5,3.4-3.7v-7.7c3.2,0,6.6,0,9.7,0v11.4
			c-2.8,3.2-6,6.3-9.2,9.4h-14.1c-3.2-3.1-6.6-6-9.4-9.4C468.5,289.1,468.8,273.9,468.8,258.8z"/>
		<path d="M509.4,249.7h9.7v27.1H532v-27.1h9.7V314H532v-27.2h-12.9V314h-9.7V249.7z"/>
		<path d="M550.5,249.7h28.8v9.7h-19.1v17.7h16v9.7h-16v17.7h19.4v9.5h-29.1L550.5,249.7z"/>
		<path d="M450.3,249.7h-17.4c-4,21.5-7.7,42.8-11.4,64.3h9.7c1.2-6,2-11.7,3.2-17.7h14.6c1.1,6,2,11.7,3.1,17.7h9.7
			C457.7,292.3,454,270.8,450.3,249.7z M435.7,286.4c1.7-9.1,3.2-18.3,5.1-27.4c0.6,0,0.8,0.3,1.4,0.6c1.7,9.2,3.2,18,5.1,27.2
			C443.4,286.4,439.4,286.4,435.7,286.4z"/>
		<path d="M614.9,285.7c0-0.9-0.6-2-0.3-3.2c1.4-1.7,3.2-3.2,4.6-4.6c0.9-0.6,0.6-1.4,0.6-2.3v-17.1l-9.2-9.2h-23.1v64.3h9.7v-27.3
			h8c1.7,9.2,3.1,18.3,5.1,27.2h9.7C618.5,304.5,616.5,295.1,614.9,285.7z M609.8,272.8c-1,1.4-2.1,2.8-3.4,4H597v-17.7h9.5
			c1.1,1.4,2.8,2.3,3.4,4V272.8z"/>
		<path d="M71.4,312.2v-35.6h18.3l6.6,6.8c1.4,0.8,0.6,2.8,0.9,4c-0.3,5.7,0.3,11.7,0,17.4c-2.2,2.6-4.6,5.1-7.1,7.4H71.4z"/>
		<path d="M200.3,276.8h18.3c2.8,2,5.1,5.1,7.7,7.2v20.8c-2.6,2.3-5.1,5.1-7.4,7.1h-18.6V276.8z"/>
		<path d="M342,258.8c-3.2-3.1-6-6.3-9.2-9.1c-7.7-0.3-15.3,0-23.1,0V314h23.1c2.9-3.2,6-6.3,9.2-9.2v-18.4l-4.6-4.6l4.6-4.6V258.8z
			 M328.8,259.1l3.4,3.4v10.6c-1.2,1.2-2.3,2.4-3.4,3.7h-9.5v-17.7H328.8z M332,300.5c-1.2,1.1-2.3,2.5-3.5,3.7h-9.4v-17.8h9.4
			c1.2,1.2,2.4,2.4,3.5,3.7L332,300.5z"/>
		<path d="M20,225.4v193.2h257.4V225.4H20z M116.6,330.8v37l-18.6,18.6H52.3c-0.2-2.9-0.2-5.9,0-8.8v-16.7c0-5.4-0.3-11.1,0-16.6
			v-16.6c-0.3-2.5-0.3-5,0-7.4V305c-0.3-4,0-7.7,0-11.7v-27.2c0-2.8-0.3-5.4-0.3-8.3h46c6.3,6.2,12.6,12.2,18.6,18.5v36.9
			c-2.8,3.2-6,6-8.8,8.8C110.6,324.8,113.7,327.6,116.6,330.8z M132.6,349.4v-22.8c10.6-10.9,21.4-21.4,32.3-32.3v22.7
			C154.3,327.9,143.4,338.8,132.6,349.4L132.6,349.4z M228.5,386.2c-5.1-18.3-9.7-36.6-14.9-54.8h-13.3v54.8h-19.1V257.4h46
			l18.6,18.6v37.2c-4.3,4.6-8.8,8.8-13.4,13.4c1.4,6.9,3.7,13.4,5.4,20.3c3.5,13.1,7.2,26.3,10.6,39.4L228.5,386.2z"/>
		<path d="M350.5,329.9h28.8v9.7h-19.1v17.9h16v9.4h-16v17.5h19.4c-0.3,3.1,0,6.6,0,9.7h-28.9C350.5,372.8,350.5,351.4,350.5,329.9z
			"/>
		<path d="M508.1,339.6v-9.7h27.1v9.7h-9v54.9h-9.7v-54.9H508.1z"/>
		<path d="M71.4,366.8v-35.6H90l6.8,6.8c0.5,0.8,0.7,1.7,0.6,2.6c-0.3,6.3,0,12.6,0,18.6c-2.6,2.3-4.6,5.1-7.2,7.2
			C83.7,367.1,77.7,366.8,71.4,366.8z"/>
		<path d="M336.5,363.1l5.4-5.5v-18.5c-2.9-3.3-6.1-6.3-9.4-9.2h-22.7v64.6h9.4v-27.4c2.7-0.2,5.4-0.2,8,0
			c1.7,9.2,3.1,18.3,4.8,27.4h9.7C340.3,383.9,338.3,373.7,336.5,363.1z M328.5,357.6h-9.4v-17.9h9.4c1.2,1.2,2.4,2.4,3.5,3.7v10.2
			C330.9,354.9,329.8,356.3,328.5,357.6z"/>
		<path d="M420,339.1c-1.4-1.7-3.2-3.2-4.6-4.8c-1.4-1.6-2.9-3-4.6-4.3h-23.1v64.6h9.7v-27.4c4.6,0,9.2,0.3,13.7,0
			c2.8-2.8,6-6,8.8-9.2L420,339.1z M410.3,353.7c-1.1,1.3-2.2,2.5-3.4,3.7h-9.5v-17.7h9.5c1.2,1.2,2.3,2.4,3.4,3.7V353.7z"/>
		<path d="M452.2,331.1c-0.6-0.6-1.4-1.4-2.3-1.4c-4.3,0-8.3-0.3-12.6,0c-3.5,2.8-6.3,6-9.5,9.2v45.8l9.5,9.5h13.7
			c3.1-3.2,6-6.3,9.1-9.5v-45.8C457.3,336.5,454.7,333.9,452.2,331.1z M446.8,384.5h-5.4c-1.1-1.5-3.1-2.3-3.7-4v-37.4
			c1.1-1.2,2.4-2.3,3.7-3.2c1.9-0.2,3.8-0.2,5.7,0c1.1,1.2,2.3,2.3,3.2,3.4v36.3C450.5,381.6,448.2,383,446.8,384.5z"/>
		<path d="M495.4,363.4c1.6-1.9,3.3-3.8,5.1-5.4v-18.6c-2.6-2.6-5.1-5.1-7.7-8c-0.6-0.6-1.4-1.5-2.3-1.5h-21.9v64.6h9.7v-27.4
			c2.6,0,5.4,0,8,0.3c1.7,9.2,3.1,18.3,5.1,27.2h9.7C499.1,383.9,496.8,373.7,495.4,363.4z M490.8,353.7c-1,1.4-2.2,2.6-3.5,3.7
			h-9.2v-17.7h9.2c1.2,1.5,2.8,2.3,3.5,4C490.8,346.8,491.1,350.2,490.8,353.7z"/>
	</g>
</g>
</svg>
